<svg width="800" height="400" viewBox="0 0 800 400" xmlns="http://www.w3.org/2000/svg"><defs><pattern id="satori_pattern_id_0" x="0" y="0" width="1" height="1" patternUnits="objectBoundingBox"><linearGradient id="satori_biid_0" x1="0" y1="0" x2="0" y2="1"><stop offset="0%" stop-color="#dbf4ff"/><stop offset="100%" stop-color="#fff1f1"/></linearGradient><rect x="0" y="0" width="800" height="400" fill="url(#satori_biid_0)"/></pattern></defs><mask id="satori_om-id"><rect x="0" y="0" width="800" height="400" fill="#fff"/></mask><rect x="0" y="0" width="800" height="400" fill="url(#satori_pattern_id_0)"/><clipPath id="satori_bct-id-0"><path d="M305.3 107.1L305.3 107.1L289.8 107.1L289.8 63.5L305.4 63.5Q312.0 63.5 316.7 66.1Q321.5 68.7 324.0 73.6Q326.6 78.5 326.6 85.3L326.6 85.3Q326.6 92.1 324.0 97.0Q321.5 101.9 316.7 104.5Q311.9 107.1 305.3 107.1ZM299.0 71.4L299.0 99.2L304.9 99.2Q309.0 99.2 311.8 97.8Q314.6 96.3 316.0 93.2Q317.4 90.1 317.4 85.3L317.4 85.3Q317.4 80.4 316.0 77.4Q314.6 74.3 311.8 72.8Q309.0 71.4 304.9 71.4L304.9 71.4L299.0 71.4ZM346.2 107.8L346.2 107.8Q341.1 107.8 337.5 105.7Q333.9 103.7 331.9 99.9Q329.9 96.1 329.9 90.9L329.9 90.9Q329.9 85.9 331.9 82.0Q333.9 78.2 337.4 76.1Q341.0 74.0 345.8 74.0L345.8 74.0Q349.0 74.0 351.9 75.0Q354.7 76.0 356.8 78.1Q358.9 80.2 360.0 83.3Q361.2 86.4 361.2 90.6L361.2 90.6L361.2 93.1L333.6 93.1L333.6 87.5L352.7 87.5Q352.7 85.5 351.8 84.0Q350.9 82.5 349.4 81.6Q347.9 80.7 346.0 80.7L346.0 80.7Q343.9 80.7 342.3 81.7Q340.7 82.6 339.8 84.2Q338.9 85.8 338.9 87.8L338.9 87.8L338.9 93.1Q338.9 95.5 339.8 97.3Q340.7 99.1 342.4 100.0Q344.0 101.0 346.3 101.0L346.3 101.0Q347.8 101.0 349.1 100.6Q350.3 100.1 351.2 99.3Q352.1 98.4 352.6 97.2L352.6 97.2L361.0 97.8Q360.4 100.8 358.4 103.0Q356.4 105.3 353.3 106.5Q350.2 107.8 346.2 107.8ZM385.1 74.4L394.7 74.4L383.3 107.1L373.0 107.1L361.6 74.4L371.2 74.4L378.0 97.8L378.3 97.8L385.1 74.4ZM411.2 107.8L411.2 107.8Q406.1 107.8 402.5 105.7Q398.9 103.7 396.9 99.9Q395.0 96.1 395.0 90.9L395.0 90.9Q395.0 85.9 396.9 82.0Q398.9 78.2 402.4 76.1Q406.0 74.0 410.8 74.0L410.8 74.0Q414.1 74.0 416.9 75.0Q419.7 76.0 421.8 78.1Q423.9 80.2 425.0 83.3Q426.2 86.4 426.2 90.6L426.2 90.6L426.2 93.1L398.6 93.1L398.6 87.5L417.7 87.5Q417.7 85.5 416.8 84.0Q416.0 82.5 414.5 81.6Q413.0 80.7 411.0 80.7L411.0 80.7Q408.9 80.7 407.3 81.7Q405.7 82.6 404.8 84.2Q403.9 85.8 403.9 87.8L403.9 87.8L403.9 93.1Q403.9 95.5 404.8 97.3Q405.7 99.1 407.4 100.0Q409.1 101.0 411.3 101.0L411.3 101.0Q412.8 101.0 414.1 100.6Q415.4 100.1 416.3 99.3Q417.2 98.4 417.6 97.2L417.6 97.2L426.0 97.8Q425.4 100.8 423.4 103.0Q421.4 105.3 418.3 106.5Q415.2 107.8 411.2 107.8ZM430.1 63.5L439.2 63.5L439.2 107.1L430.1 107.1L430.1 63.5ZM459.2 107.8L459.2 107.8Q454.3 107.8 450.7 105.6Q447.1 103.5 445.1 99.7Q443.1 95.9 443.1 90.9L443.1 90.9Q443.1 85.8 445.1 82.0Q447.1 78.2 450.7 76.1Q454.3 74.0 459.2 74.0L459.2 74.0Q464.2 74.0 467.8 76.1Q471.4 78.2 473.4 82.0Q475.3 85.8 475.3 90.9L475.3 90.9Q475.3 95.9 473.4 99.7Q471.4 103.5 467.8 105.6Q464.2 107.8 459.2 107.8ZM459.3 100.7L459.3 100.7Q461.5 100.7 463.1 99.4Q464.6 98.2 465.3 95.9Q466.1 93.7 466.1 90.8L466.1 90.8Q466.1 88.0 465.3 85.7Q464.6 83.5 463.1 82.2Q461.5 80.9 459.3 80.9L459.3 80.9Q457.0 80.9 455.5 82.2Q453.9 83.5 453.1 85.7Q452.4 88.0 452.4 90.8L452.4 90.8Q452.4 93.7 453.1 95.9Q453.9 98.2 455.5 99.4Q457.0 100.7 459.3 100.7ZM488.3 119.4L479.3 119.4L479.3 74.4L488.2 74.4L488.2 79.9L488.6 79.9Q489.2 78.6 490.4 77.2Q491.5 75.8 493.3 74.9Q495.2 74.0 497.9 74.0L497.9 74.0Q501.5 74.0 504.5 75.8Q507.6 77.7 509.4 81.4Q511.2 85.2 511.2 90.8L511.2 90.8Q511.2 96.3 509.4 100.0Q507.7 103.8 504.7 105.7Q501.6 107.7 497.9 107.7L497.9 107.7Q495.3 107.7 493.4 106.8Q491.6 105.9 490.4 104.6Q489.2 103.2 488.6 101.9L488.6 101.9L488.3 101.9L488.3 119.4ZM488.2 90.8L488.2 90.8Q488.2 93.7 489.0 95.9Q489.8 98.0 491.3 99.2Q492.8 100.4 495.0 100.4L495.0 100.4Q497.3 100.4 498.8 99.2Q500.3 98.0 501.1 95.8Q501.9 93.6 501.9 90.8L501.9 90.8Q501.9 87.9 501.1 85.8Q500.3 83.6 498.8 82.4Q497.3 81.2 495.0 81.2L495.0 81.2Q492.8 81.2 491.3 82.4Q489.8 83.5 489.0 85.7Q488.2 87.8 488.2 90.8Z "/></clipPath><defs><pattern id="satori_pattern_id-0_0" x="0" y="0" width="1" height="1" patternUnits="objectBoundingBox"><linearGradient id="satori_biid-0_0" x1="0" y1="0" x2="1" y2="0"><stop offset="0%" stop-color="rgb(0,124,240)"/><stop offset="100%" stop-color="rgb(0,223,216)"/></linearGradient><rect x="0" y="0" width="228" height="73" fill="url(#satori_biid-0_0)"/></pattern></defs><mask id="satori_om-id-0"><rect x="286" y="49" width="228" height="73" fill="#fff"/></mask><rect x="286" y="49" width="228" height="73" fill="url(#satori_pattern_id-0_0)" clip-path="url(#satori_bct-id-0)"/><clipPath id="satori_bct-id-1"><path d="M292.3 149.0L283.5 149.0Q283.2 146.5 281.3 145.0Q279.3 143.6 276.0 143.6L276.0 143.6Q273.7 143.6 272.2 144.2Q270.6 144.9 269.8 146.0Q269.0 147.1 269.0 148.5L269.0 148.5Q269.0 149.7 269.5 150.5Q270.0 151.4 271 152.0Q272.0 152.7 273.2 153.1Q274.5 153.6 275.9 153.9L275.9 153.9L279.8 154.8Q282.7 155.5 285.1 156.5Q287.4 157.6 289.2 159.2Q290.9 160.7 291.9 162.8Q292.9 164.9 292.9 167.7L292.9 167.7Q292.9 171.7 290.9 174.6Q288.9 177.5 285.1 179.1Q281.3 180.7 276.0 180.7L276.0 180.7Q270.7 180.7 266.8 179.1Q262.9 177.5 260.7 174.3Q258.5 171.1 258.4 166.4L258.4 166.4L267.3 166.4Q267.5 168.6 268.6 170.1Q269.7 171.5 271.6 172.3Q273.5 173.0 275.9 173.0L275.9 173.0Q278.2 173.0 279.9 172.3Q281.7 171.6 282.6 170.4Q283.6 169.2 283.6 167.6L283.6 167.6Q283.6 166.2 282.7 165.2Q281.9 164.2 280.2 163.5Q278.6 162.8 276.2 162.2L276.2 162.2L271.4 161.0Q265.9 159.6 262.7 156.8Q259.5 153.9 259.5 149.1L259.5 149.1Q259.5 145.1 261.7 142.2Q263.8 139.2 267.5 137.6Q271.3 135.9 276.1 135.9L276.1 135.9Q280.9 135.9 284.6 137.6Q288.2 139.2 290.2 142.2Q292.2 145.1 292.3 149.0L292.3 149.0ZM306.0 161.2L306.0 161.2L306.0 180.1L296.9 180.1L296.9 136.5L305.7 136.5L305.7 153.2L306.1 153.2Q307.2 150.3 309.7 148.6Q312.2 147.0 315.9 147.0L315.9 147.0Q319.3 147.0 321.9 148.5Q324.4 149.9 325.8 152.7Q327.2 155.5 327.2 159.3L327.2 159.3L327.2 180.1L318.1 180.1L318.1 160.9Q318.2 157.9 316.6 156.2Q315.1 154.5 312.3 154.5L312.3 154.5Q310.4 154.5 309.0 155.3Q307.6 156.1 306.8 157.6Q306.0 159.1 306.0 161.2ZM347.2 180.8L347.2 180.8Q342.2 180.8 338.6 178.6Q335.0 176.5 333.0 172.7Q331.0 168.9 331.0 163.9L331.0 163.9Q331.0 158.8 333.0 155.0Q335.0 151.2 338.6 149.1Q342.2 147.0 347.2 147.0L347.2 147.0Q352.1 147.0 355.7 149.1Q359.3 151.2 361.3 155.0Q363.3 158.8 363.3 163.9L363.3 163.9Q363.3 168.9 361.3 172.7Q359.3 176.5 355.7 178.6Q352.1 180.8 347.2 180.8ZM347.2 173.7L347.2 173.7Q349.5 173.7 351.0 172.4Q352.5 171.2 353.3 168.9Q354.0 166.7 354.0 163.8L354.0 163.8Q354.0 161.0 353.3 158.7Q352.5 156.5 351.0 155.2Q349.5 153.9 347.2 153.9L347.2 153.9Q344.9 153.9 343.4 155.2Q341.8 156.5 341.1 158.7Q340.3 161.0 340.3 163.8L340.3 163.8Q340.3 166.7 341.1 168.9Q341.8 171.2 343.4 172.4Q344.9 173.7 347.2 173.7ZM382.4 180.1L372.8 180.1L363.9 147.4L373.1 147.4L378.2 169.4L378.5 169.4L383.8 147.4L392.8 147.4L398.1 169.3L398.4 169.3L403.4 147.4L412.6 147.4L403.7 180.1L394.1 180.1L388.5 159.5L388.0 159.5L382.4 180.1ZM429.4 180.8L429.4 180.8Q424.3 180.8 420.7 178.6Q417.1 176.5 415.2 172.7Q413.3 168.9 413.3 163.9L413.3 163.9Q413.3 158.9 415.2 155.1Q417.2 151.3 420.8 149.1Q424.4 147.0 429.3 147.0L429.3 147.0Q433.6 147.0 436.8 148.5Q440.0 150.1 441.9 152.9Q443.8 155.7 444.0 159.5L444.0 159.5L435.4 159.5Q435.1 157.0 433.5 155.5Q432.0 154.0 429.5 154.0L429.5 154.0Q427.4 154.0 425.8 155.2Q424.2 156.3 423.4 158.5Q422.5 160.7 422.5 163.8L422.5 163.8Q422.5 166.9 423.3 169.1Q424.2 171.3 425.8 172.4Q427.4 173.6 429.5 173.6L429.5 173.6Q431.0 173.6 432.3 172.9Q433.5 172.3 434.3 171.1Q435.2 169.9 435.4 168.1L435.4 168.1L444.0 168.1Q443.8 171.9 441.9 174.7Q440.1 177.6 436.9 179.2Q433.7 180.8 429.4 180.8ZM457.2 180.7L457.2 180.7Q454.0 180.7 451.6 179.6Q449.1 178.5 447.7 176.4Q446.3 174.2 446.3 171.0L446.3 171.0Q446.3 168.3 447.3 166.4Q448.3 164.5 450.0 163.4Q451.7 162.3 453.9 161.7Q456.1 161.1 458.6 160.9L458.6 160.9Q461.4 160.6 463.2 160.3Q464.9 160.1 465.7 159.5Q466.5 159.0 466.5 158.0L466.5 158.0L466.5 157.8Q466.5 155.8 465.2 154.7Q464.0 153.6 461.6 153.6L461.6 153.6Q459.2 153.6 457.7 154.7Q456.3 155.8 455.8 157.4L455.8 157.4L447.4 156.7Q448.1 153.7 449.9 151.5Q451.8 149.3 454.8 148.2Q457.8 147.0 461.7 147.0L461.7 147.0Q464.4 147.0 466.9 147.6Q469.4 148.3 471.4 149.6Q473.3 150.9 474.5 153.0Q475.6 155.1 475.6 158.1L475.6 158.1L475.6 180.1L467.0 180.1L467.0 175.6L466.7 175.6Q465.9 177.1 464.6 178.3Q463.3 179.4 461.4 180.1Q459.6 180.7 457.2 180.7ZM459.8 174.5L459.8 174.5Q461.8 174.5 463.3 173.7Q464.8 172.9 465.7 171.5Q466.6 170.2 466.6 168.4L466.6 168.4L466.6 165.0Q466.1 165.2 465.4 165.5Q464.7 165.7 463.8 165.9Q462.8 166.0 461.9 166.2Q461.0 166.3 460.3 166.4L460.3 166.4Q458.7 166.7 457.5 167.2Q456.3 167.7 455.6 168.5Q455.0 169.4 455.0 170.7L455.0 170.7Q455.0 172.5 456.3 173.5Q457.7 174.5 459.8 174.5ZM507.9 156.7L507.9 156.7L499.6 157.2Q499.3 156.2 498.6 155.3Q497.9 154.5 496.8 153.9Q495.7 153.4 494.1 153.4L494.1 153.4Q492.0 153.4 490.5 154.3Q489.1 155.2 489.1 156.6L489.1 156.6Q489.1 157.8 490.0 158.6Q490.9 159.4 493.2 159.9L493.2 159.9L499.1 161.1Q503.9 162.1 506.3 164.3Q508.6 166.4 508.6 170.0L508.6 170.0Q508.6 173.2 506.7 175.6Q504.8 178.1 501.6 179.4Q498.3 180.8 494.0 180.8L494.0 180.8Q487.5 180.8 483.7 178.0Q479.8 175.3 479.2 170.6L479.2 170.6L488.1 170.2Q488.5 172.2 490.1 173.2Q491.6 174.2 494.1 174.2L494.1 174.2Q496.4 174.2 497.9 173.3Q499.4 172.4 499.4 170.9L499.4 170.9Q499.4 169.7 498.3 168.9Q497.3 168.1 495.2 167.6L495.2 167.6L489.5 166.5Q484.7 165.6 482.4 163.2Q480.1 160.8 480.1 157.2L480.1 157.2Q480.1 154.0 481.8 151.7Q483.5 149.4 486.6 148.2Q489.7 147.0 493.9 147.0L493.9 147.0Q500.1 147.0 503.7 149.6Q507.3 152.2 507.9 156.7ZM527.3 180.8L527.3 180.8Q522.2 180.8 518.6 178.7Q514.9 176.7 513.0 172.9Q511.0 169.1 511.0 163.9L511.0 163.9Q511.0 158.9 513.0 155.0Q514.9 151.2 518.5 149.1Q522.1 147.0 526.9 147.0L526.9 147.0Q530.1 147.0 532.9 148.0Q535.7 149.0 537.8 151.1Q539.9 153.2 541.1 156.3Q542.3 159.4 542.3 163.6L542.3 163.6L542.3 166.1L514.6 166.1L514.6 160.5L533.7 160.5Q533.7 158.5 532.9 157.0Q532.0 155.5 530.5 154.6Q529.0 153.7 527.0 153.7L527.0 153.7Q525.0 153.7 523.4 154.7Q521.8 155.6 520.9 157.2Q520.0 158.8 520.0 160.8L520.0 160.8L520.0 166.1Q520.0 168.5 520.9 170.3Q521.8 172.1 523.5 173.0Q525.1 174.0 527.4 174.0L527.4 174.0Q528.9 174.0 530.2 173.6Q531.4 173.1 532.3 172.3Q533.2 171.4 533.7 170.2L533.7 170.2L542.1 170.8Q541.4 173.8 539.5 176.0Q537.5 178.3 534.4 179.5Q531.3 180.8 527.3 180.8Z "/></clipPath><defs><pattern id="satori_pattern_id-1_0" x="0" y="0" width="1" height="1" patternUnits="objectBoundingBox"><linearGradient id="satori_biid-1_0" x1="0" y1="0" x2="1" y2="0"><stop offset="0%" stop-color="rgb(121,40,202)"/><stop offset="100%" stop-color="rgb(255,0,128)"/></linearGradient><rect x="0" y="0" width="289" height="72" fill="url(#satori_biid-1_0)"/></pattern></defs><mask id="satori_om-id-1"><rect x="256" y="122" width="289" height="72" fill="#fff"/></mask><rect x="256" y="122" width="289" height="72" fill="url(#satori_pattern_id-1_0)" clip-path="url(#satori_bct-id-1)"/><clipPath id="satori_bct-id-2"><path d="M317.7 236.0L317.7 208.5L327.0 208.5L327.0 236.8Q327.0 241.6 324.7 245.2Q322.4 248.8 318.4 250.8Q314.3 252.7 308.9 252.7L308.9 252.7Q303.4 252.7 299.4 250.8Q295.3 248.8 293.1 245.2Q290.8 241.6 290.8 236.8L290.8 236.8L290.8 208.5L300.0 208.5L300.0 236.0Q300.0 238.5 301.1 240.5Q302.2 242.4 304.2 243.5Q306.2 244.6 308.9 244.6L308.9 244.6Q311.6 244.6 313.6 243.5Q315.6 242.4 316.6 240.5Q317.7 238.5 317.7 236.0L317.7 236.0ZM341.5 233.2L341.5 233.2L341.5 252.1L332.4 252.1L332.4 219.4L341.0 219.4L341.0 225.2L341.4 225.2Q342.5 222.3 345.1 220.6Q347.6 219.0 351.3 219.0L351.3 219.0Q354.7 219.0 357.2 220.5Q359.7 222.0 361.2 224.7Q362.6 227.5 362.6 231.3L362.6 231.3L362.6 252.1L353.5 252.1L353.5 232.9Q353.5 229.9 351.9 228.2Q350.4 226.5 347.7 226.5L347.7 226.5Q345.8 226.5 344.4 227.3Q343.0 228.1 342.3 229.6Q341.5 231.1 341.5 233.2ZM367.7 208.5L376.8 208.5L376.8 252.1L367.7 252.1L367.7 208.5ZM396.9 252.8L396.9 252.8Q391.9 252.8 388.2 250.7Q384.6 248.7 382.7 244.9Q380.7 241.1 380.7 235.9L380.7 235.9Q380.7 230.9 382.7 227.0Q384.6 223.2 388.2 221.1Q391.8 219.0 396.6 219.0L396.6 219.0Q399.8 219.0 402.6 220.0Q405.4 221.0 407.5 223.1Q409.6 225.2 410.8 228.3Q412.0 231.4 412.0 235.6L412.0 235.6L412.0 238.1L384.3 238.1L384.3 232.5L403.4 232.5Q403.4 230.5 402.6 229.0Q401.7 227.5 400.2 226.6Q398.7 225.7 396.7 225.7L396.7 225.7Q394.7 225.7 393.1 226.7Q391.5 227.6 390.6 229.2Q389.7 230.8 389.7 232.8L389.7 232.8L389.7 238.1Q389.7 240.5 390.6 242.3Q391.5 244.1 393.1 245.0Q394.8 246.0 397.1 246.0L397.1 246.0Q398.6 246.0 399.8 245.6Q401.1 245.1 402.0 244.3Q402.9 243.4 403.4 242.2L403.4 242.2L411.8 242.8Q411.1 245.8 409.1 248.0Q407.2 250.3 404.1 251.5Q401.0 252.8 396.9 252.8ZM425.2 252.7L425.2 252.7Q422.1 252.7 419.6 251.6Q417.2 250.5 415.8 248.4Q414.3 246.2 414.3 243.0L414.3 243.0Q414.3 240.3 415.3 238.4Q416.3 236.5 418.1 235.4Q419.8 234.3 422.0 233.7Q424.2 233.1 426.6 232.9L426.6 232.9Q429.5 232.6 431.2 232.3Q433.0 232.1 433.8 231.5Q434.6 231.0 434.6 230.0L434.6 230.0L434.6 229.8Q434.6 227.8 433.3 226.7Q432.0 225.6 429.7 225.6L429.7 225.6Q427.3 225.6 425.8 226.7Q424.4 227.8 423.9 229.4L423.9 229.4L415.5 228.7Q416.1 225.7 418.0 223.5Q419.9 221.3 422.9 220.2Q425.8 219.0 429.7 219.0L429.7 219.0Q432.5 219.0 435.0 219.6Q437.5 220.3 439.4 221.6Q441.4 222.9 442.5 225.0Q443.6 227.1 443.6 230.1L443.6 230.1L443.6 252.1L435.0 252.1L435.0 247.6L434.8 247.6Q434.0 249.1 432.7 250.3Q431.3 251.4 429.5 252.1Q427.6 252.7 425.2 252.7ZM427.8 246.5L427.8 246.5Q429.8 246.5 431.3 245.7Q432.9 244.9 433.8 243.5Q434.6 242.2 434.6 240.4L434.6 240.4L434.6 237.0Q434.2 237.2 433.5 237.5Q432.7 237.7 431.8 237.9Q430.9 238.0 430.0 238.2Q429.1 238.3 428.3 238.4L428.3 238.4Q426.7 238.7 425.5 239.2Q424.3 239.7 423.7 240.5Q423.0 241.4 423.0 242.7L423.0 242.7Q423.0 244.5 424.4 245.5Q425.7 246.5 427.8 246.5ZM475.9 228.7L475.9 228.7L467.6 229.2Q467.4 228.2 466.7 227.3Q466.0 226.5 464.9 225.9Q463.7 225.4 462.1 225.4L462.1 225.4Q460.0 225.4 458.6 226.3Q457.1 227.2 457.1 228.6L457.1 228.6Q457.1 229.8 458.1 230.6Q459.0 231.4 461.3 231.9L461.3 231.9L467.2 233.1Q472.0 234.1 474.3 236.3Q476.7 238.4 476.7 242.0L476.7 242.0Q476.7 245.2 474.8 247.6Q472.9 250.1 469.6 251.4Q466.4 252.8 462.1 252.8L462.1 252.8Q455.6 252.8 451.7 250.0Q447.9 247.3 447.2 242.6L447.2 242.6L456.2 242.2Q456.6 244.2 458.1 245.2Q459.7 246.2 462.1 246.2L462.1 246.2Q464.5 246.2 466.0 245.3Q467.4 244.4 467.4 242.9L467.4 242.9Q467.4 241.7 466.4 240.9Q465.4 240.1 463.2 239.6L463.2 239.6L457.6 238.5Q452.8 237.6 450.4 235.2Q448.1 232.8 448.1 229.2L448.1 229.2Q448.1 226.0 449.8 223.7Q451.5 221.4 454.7 220.2Q457.8 219.0 462.0 219.0L462.0 219.0Q468.2 219.0 471.8 221.6Q475.3 224.2 475.9 228.7ZM489.5 233.2L489.5 233.2L489.5 252.1L480.4 252.1L480.4 208.5L489.2 208.5L489.2 225.2L489.6 225.2Q490.7 222.3 493.2 220.6Q495.7 219.0 499.4 219.0L499.4 219.0Q502.8 219.0 505.3 220.5Q507.9 221.9 509.3 224.7Q510.7 227.5 510.7 231.3L510.7 231.3L510.7 252.1L501.6 252.1L501.6 232.9Q501.6 229.9 500.1 228.2Q498.6 226.5 495.8 226.5L495.8 226.5Q493.9 226.5 492.5 227.3Q491.1 228.1 490.3 229.6Q489.5 231.1 489.5 233.2Z "/></clipPath><defs><pattern id="satori_pattern_id-2_0" x="0" y="0" width="1" height="1" patternUnits="objectBoundingBox"><linearGradient id="satori_biid-2_0" x1="0" y1="1" x2="1.1381741504054226" y2="0.8045221728451268"><stop offset="0%" stop-color="#FBAB7E"/><stop offset="100%" stop-color="#F7CE68"/></linearGradient><rect x="0" y="0" width="226" height="73" fill="url(#satori_biid-2_0)"/></pattern></defs><mask id="satori_om-id-2"><rect x="287" y="194" width="226" height="73" fill="#fff"/></mask><rect x="287" y="194" width="226" height="73" fill="#FBAB7E" clip-path="url(#satori_bct-id-2)"/><rect x="287" y="194" width="226" height="73" fill="url(#satori_pattern_id-2_0)" clip-path="url(#satori_bct-id-2)"/><clipPath id="satori_bct-id-3"><path d="M356.2 346.6L356.2 346.6Q355.0 346.6 354.0 345.9Q353.0 345.3 352.4 344.0Q351.8 342.8 351.8 340.9L351.8 340.9Q351.8 339.1 352.4 337.8Q353.0 336.6 354.0 335.9Q355.0 335.3 356.2 335.3L356.2 335.3Q357.1 335.3 357.8 335.6Q358.4 335.9 358.7 336.4Q359.1 336.9 359.3 337.3L359.3 337.3L359.4 337.3L359.4 331.8L362.4 331.8L362.4 346.4L359.5 346.4L359.5 344.6L359.3 344.6Q359.1 345.1 358.7 345.5Q358.3 346.0 357.7 346.3Q357.1 346.6 356.2 346.6ZM357.2 344.1L357.2 344.1Q357.9 344.1 358.4 343.7Q358.9 343.3 359.2 342.6Q359.5 341.9 359.5 340.9L359.5 340.9Q359.5 339.9 359.2 339.2Q358.9 338.5 358.4 338.1Q357.9 337.7 357.2 337.7L357.2 337.7Q356.4 337.7 355.9 338.1Q355.4 338.5 355.2 339.3Q354.9 340.0 354.9 340.9L354.9 340.9Q354.9 341.9 355.2 342.6Q355.4 343.3 355.9 343.7Q356.4 344.1 357.2 344.1ZM365.9 340.1L365.9 340.1L365.9 346.4L362.9 346.4L362.9 331.8L365.9 331.8L365.9 337.4L366.0 337.4Q366.4 336.4 367.2 335.9Q368.0 335.3 369.2 335.3L369.2 335.3Q370.4 335.3 371.2 335.8Q372.1 336.3 372.5 337.2Q373.0 338.2 373.0 339.4L373.0 339.4L373.0 346.4L370.0 346.4L370.0 340.0Q370.0 339.0 369.5 338.4Q369.0 337.8 368.0 337.8L368.0 337.8Q367.4 337.8 367.0 338.1Q366.5 338.4 366.2 338.9Q365.9 339.4 365.9 340.1ZM376.4 346.4L373.4 346.4L373.4 335.5L376.3 335.5L376.3 337.4L376.4 337.4Q376.7 336.4 377.4 335.8Q378.2 335.3 379.1 335.3L379.1 335.3Q379.3 335.3 379.6 335.3Q379.8 335.4 380.0 335.4L380.0 335.4L380.0 338.1Q379.8 338.0 379.4 338.0Q379.1 337.9 378.7 337.9L378.7 337.9Q378.1 337.9 377.6 338.2Q377.0 338.5 376.7 339.0Q376.4 339.5 376.4 340.2L376.4 340.2L376.4 346.4ZM384.0 346.6L384.0 346.6Q382.4 346.6 381.1 345.9Q379.9 345.2 379.3 344.0Q378.6 342.7 378.6 341.0L378.6 341.0Q378.6 339.3 379.3 338.0Q379.9 336.7 381.1 336.0Q382.3 335.3 383.9 335.3L383.9 335.3Q385.0 335.3 385.9 335.7Q386.9 336.0 387.6 336.7Q388.3 337.4 388.7 338.4Q389.0 339.5 389.0 340.9L389.0 340.9L389.0 341.7L379.8 341.7L379.8 339.8L386.2 339.8Q386.2 339.2 385.9 338.7Q385.6 338.2 385.1 337.9Q384.6 337.6 384.0 337.6L384.0 337.6Q383.3 337.6 382.7 337.9Q382.2 338.2 381.9 338.7Q381.6 339.3 381.6 339.9L381.6 339.9L381.6 341.7Q381.6 342.5 381.9 343.1Q382.2 343.7 382.8 344.0Q383.3 344.3 384.1 344.3L384.1 344.3Q384.6 344.3 385.0 344.2Q385.4 344.0 385.7 343.8Q386.0 343.5 386.2 343.1L386.2 343.1L389.0 343.3Q388.8 344.3 388.1 345.0Q387.5 345.8 386.4 346.2Q385.4 346.6 384.0 346.6ZM393.9 350.7L393.9 350.7Q392.5 350.7 391.4 350.3Q390.4 349.9 389.7 349.2Q389.1 348.5 388.9 347.7L388.9 347.7L391.7 347.3Q391.9 347.6 392.1 347.9Q392.4 348.2 392.9 348.3Q393.3 348.5 394.0 348.5L394.0 348.5Q395.0 348.5 395.6 348.0Q396.3 347.6 396.3 346.4L396.3 346.4L396.3 344.4L396.1 344.4Q395.9 344.9 395.5 345.3Q395.2 345.7 394.5 346.0Q393.9 346.2 393.0 346.2L393.0 346.2Q391.8 346.2 390.8 345.6Q389.8 345.1 389.2 343.9Q388.6 342.7 388.6 340.9L388.6 340.9Q388.6 339.0 389.2 337.8Q389.8 336.6 390.8 335.9Q391.8 335.3 393.0 335.3L393.0 335.3Q393.9 335.3 394.6 335.6Q395.2 335.9 395.6 336.4Q395.9 336.9 396.1 337.3L396.1 337.3L396.3 337.3L396.3 335.5L399.3 335.5L399.3 346.5Q399.3 347.9 398.6 348.8Q397.9 349.7 396.7 350.2Q395.5 350.7 393.9 350.7ZM394.0 343.9L394.0 343.9Q394.7 343.9 395.2 343.6Q395.7 343.2 396.0 342.5Q396.3 341.8 396.3 340.9L396.3 340.9Q396.3 339.9 396.0 339.2Q395.7 338.5 395.2 338.1Q394.7 337.7 394.0 337.7L394.0 337.7Q393.2 337.7 392.7 338.1Q392.2 338.5 392.0 339.2Q391.7 340.0 391.7 340.9L391.7 340.9Q391.7 341.8 392.0 342.5Q392.2 343.2 392.7 343.6Q393.2 343.9 394.0 343.9ZM404.6 346.6L404.6 346.6Q403.0 346.6 401.7 345.9Q400.5 345.2 399.9 343.9Q399.2 342.6 399.2 341.0L399.2 341.0Q399.2 339.3 399.9 338.0Q400.5 336.7 401.7 336.0Q403.0 335.3 404.6 335.3L404.6 335.3Q406.3 335.3 407.5 336.0Q408.7 336.7 409.3 338.0Q410.0 339.3 410.0 341.0L410.0 341.0Q410.0 342.6 409.3 343.9Q408.7 345.2 407.5 345.9Q406.3 346.6 404.6 346.6ZM404.6 344.2L404.6 344.2Q405.4 344.2 405.9 343.8Q406.4 343.4 406.6 342.6Q406.9 341.9 406.9 340.9L406.9 340.9Q406.9 340.0 406.6 339.2Q406.4 338.5 405.9 338.1Q405.4 337.6 404.6 337.6L404.6 337.6Q403.9 337.6 403.3 338.1Q402.8 338.5 402.6 339.2Q402.3 340.0 402.3 340.9L402.3 340.9Q402.3 341.9 402.6 342.6Q402.8 343.4 403.3 343.8Q403.9 344.2 404.6 344.2ZM411.7 346.6L411.7 346.6Q411.0 346.6 410.5 346.1Q410.0 345.6 410.0 344.9L410.0 344.9Q410.0 344.2 410.5 343.7Q411.0 343.2 411.7 343.2L411.7 343.2Q412.4 343.2 412.9 343.7Q413.4 344.2 413.4 344.9L413.4 344.9Q413.4 345.3 413.2 345.7Q412.9 346.1 412.6 346.3Q412.2 346.6 411.7 346.6ZM418.8 346.6L418.8 346.6Q417.2 346.6 416.0 345.9Q414.7 345.2 414.1 343.9Q413.5 342.6 413.5 341.0L413.5 341.0Q413.5 339.3 414.1 338.0Q414.8 336.8 416.0 336.0Q417.2 335.3 418.8 335.3L418.8 335.3Q420.2 335.3 421.3 335.8Q422.4 336.4 423.0 337.3Q423.6 338.2 423.7 339.5L423.7 339.5L420.8 339.5Q420.7 338.7 420.2 338.2Q419.7 337.7 418.9 337.7L418.9 337.7Q418.2 337.7 417.6 338.1Q417.1 338.4 416.8 339.2Q416.5 339.9 416.5 340.9L416.5 340.9Q416.5 342.0 416.8 342.7Q417.1 343.4 417.6 343.8Q418.2 344.2 418.9 344.2L418.9 344.2Q419.4 344.2 419.8 344.0Q420.2 343.8 420.5 343.4Q420.8 343.0 420.8 342.4L420.8 342.4L423.7 342.4Q423.6 343.6 423.0 344.6Q422.4 345.5 421.4 346.1Q420.3 346.6 418.8 346.6ZM428.6 346.6L428.6 346.6Q426.9 346.6 425.7 345.9Q424.5 345.2 423.9 343.9Q423.2 342.6 423.2 341.0L423.2 341.0Q423.2 339.3 423.9 338.0Q424.5 336.7 425.7 336.0Q426.9 335.3 428.6 335.3L428.6 335.3Q430.2 335.3 431.4 336.0Q432.6 336.7 433.3 338.0Q433.9 339.3 433.9 341.0L433.9 341.0Q433.9 342.6 433.3 343.9Q432.6 345.2 431.4 345.9Q430.2 346.6 428.6 346.6ZM428.6 344.2L428.6 344.2Q429.3 344.2 429.9 343.8Q430.4 343.4 430.6 342.6Q430.9 341.9 430.9 340.9L430.9 340.9Q430.9 340.0 430.6 339.2Q430.4 338.5 429.9 338.1Q429.3 337.6 428.6 337.6L428.6 337.6Q427.8 337.6 427.3 338.1Q426.8 338.5 426.5 339.2Q426.3 340.0 426.3 340.9L426.3 340.9Q426.3 341.9 426.5 342.6Q426.8 343.4 427.3 343.8Q427.8 344.2 428.6 344.2ZM436.9 346.4L433.9 346.4L433.9 335.5L436.8 335.5L436.8 337.4L436.9 337.4Q437.3 336.4 438.1 335.9Q438.9 335.3 440.0 335.3L440.0 335.3Q441.1 335.3 441.9 335.9Q442.7 336.4 442.9 337.4L442.9 337.4L443.0 337.4Q443.4 336.5 444.3 335.9Q445.1 335.3 446.3 335.3L446.3 335.3Q447.9 335.3 448.8 336.3Q449.8 337.3 449.8 339.0L449.8 339.0L449.8 346.4L446.8 346.4L446.8 339.6Q446.8 338.7 446.3 338.3Q445.8 337.8 445.1 337.8L445.1 337.8Q444.2 337.8 443.8 338.3Q443.3 338.9 443.3 339.7L443.3 339.7L443.3 346.4L440.4 346.4L440.4 339.6Q440.4 338.8 439.9 338.3Q439.5 337.8 438.7 337.8L438.7 337.8Q438.2 337.8 437.8 338.1Q437.4 338.3 437.2 338.8Q436.9 339.2 436.9 339.8L436.9 339.8L436.9 346.4Z "/></clipPath><defs><pattern id="satori_pattern_id-3_0" x="0" y="0" width="1" height="1" patternUnits="objectBoundingBox"><radialGradient id="satori_radial_id-3_0"><stop offset="0" stop-color="rgba(255,255,255,0.9)"/><stop offset="0.77" stop-color="rgba(153,153,153,0.7)"/><stop offset="1" stop-color="rgba(153,153,153,0.7)"/></radialGradient><mask id="satori_mask_id-3_0"><rect x="0" y="0" width="99" height="24" fill="#fff"/></mask><rect x="0" y="0" width="99" height="24" fill="rgba(153,153,153,0.7)"/><circle cx="49.5" cy="12" width="99" height="24" r="50.93378053904893" fill="url(#satori_radial_id-3_0)" mask="url(#satori_mask_id-3_0)"/></pattern></defs><mask id="satori_om-id-3"><rect x="351" y="327" width="99" height="24" fill="#fff"/></mask><rect x="351" y="327" width="99" height="24" fill="url(#satori_pattern_id-3_0)" clip-path="url(#satori_bct-id-3)"/><path fill="rgba(0,0,0,0.5)" d="M356.2 346.6L356.2 346.6Q355.0 346.6 354.0 345.9Q353.0 345.3 352.4 344.0Q351.8 342.8 351.8 340.9L351.8 340.9Q351.8 339.1 352.4 337.8Q353.0 336.6 354.0 335.9Q355.0 335.3 356.2 335.3L356.2 335.3Q357.1 335.3 357.8 335.6Q358.4 335.9 358.7 336.4Q359.1 336.9 359.3 337.3L359.3 337.3L359.4 337.3L359.4 331.8L362.4 331.8L362.4 346.4L359.5 346.4L359.5 344.6L359.3 344.6Q359.1 345.1 358.7 345.5Q358.3 346.0 357.7 346.3Q357.1 346.6 356.2 346.6ZM357.2 344.1L357.2 344.1Q357.9 344.1 358.4 343.7Q358.9 343.3 359.2 342.6Q359.5 341.9 359.5 340.9L359.5 340.9Q359.5 339.9 359.2 339.2Q358.9 338.5 358.4 338.1Q357.9 337.7 357.2 337.7L357.2 337.7Q356.4 337.7 355.9 338.1Q355.4 338.5 355.2 339.3Q354.9 340.0 354.9 340.9L354.9 340.9Q354.9 341.9 355.2 342.6Q355.4 343.3 355.9 343.7Q356.4 344.1 357.2 344.1ZM365.9 340.1L365.9 340.1L365.9 346.4L362.9 346.4L362.9 331.8L365.9 331.8L365.9 337.4L366.0 337.4Q366.4 336.4 367.2 335.9Q368.0 335.3 369.2 335.3L369.2 335.3Q370.4 335.3 371.2 335.8Q372.1 336.3 372.5 337.2Q373.0 338.2 373.0 339.4L373.0 339.4L373.0 346.4L370.0 346.4L370.0 340.0Q370.0 339.0 369.5 338.4Q369.0 337.8 368.0 337.8L368.0 337.8Q367.4 337.8 367.0 338.1Q366.5 338.4 366.2 338.9Q365.9 339.4 365.9 340.1ZM376.4 346.4L373.4 346.4L373.4 335.5L376.3 335.5L376.3 337.4L376.4 337.4Q376.7 336.4 377.4 335.8Q378.2 335.3 379.1 335.3L379.1 335.3Q379.3 335.3 379.6 335.3Q379.8 335.4 380.0 335.4L380.0 335.4L380.0 338.1Q379.8 338.0 379.4 338.0Q379.1 337.9 378.7 337.9L378.7 337.9Q378.1 337.9 377.6 338.2Q377.0 338.5 376.7 339.0Q376.4 339.5 376.4 340.2L376.4 340.2L376.4 346.4ZM384.0 346.6L384.0 346.6Q382.4 346.6 381.1 345.9Q379.9 345.2 379.3 344.0Q378.6 342.7 378.6 341.0L378.6 341.0Q378.6 339.3 379.3 338.0Q379.9 336.7 381.1 336.0Q382.3 335.3 383.9 335.3L383.9 335.3Q385.0 335.3 385.9 335.7Q386.9 336.0 387.6 336.7Q388.3 337.4 388.7 338.4Q389.0 339.5 389.0 340.9L389.0 340.9L389.0 341.7L379.8 341.7L379.8 339.8L386.2 339.8Q386.2 339.2 385.9 338.7Q385.6 338.2 385.1 337.9Q384.6 337.6 384.0 337.6L384.0 337.6Q383.3 337.6 382.7 337.9Q382.2 338.2 381.9 338.7Q381.6 339.3 381.6 339.9L381.6 339.9L381.6 341.7Q381.6 342.5 381.9 343.1Q382.2 343.7 382.8 344.0Q383.3 344.3 384.1 344.3L384.1 344.3Q384.6 344.3 385.0 344.2Q385.4 344.0 385.7 343.8Q386.0 343.5 386.2 343.1L386.2 343.1L389.0 343.3Q388.8 344.3 388.1 345.0Q387.5 345.8 386.4 346.2Q385.4 346.6 384.0 346.6ZM393.9 350.7L393.9 350.7Q392.5 350.7 391.4 350.3Q390.4 349.9 389.7 349.2Q389.1 348.5 388.9 347.7L388.9 347.7L391.7 347.3Q391.9 347.6 392.1 347.9Q392.4 348.2 392.9 348.3Q393.3 348.5 394.0 348.5L394.0 348.5Q395.0 348.5 395.6 348.0Q396.3 347.6 396.3 346.4L396.3 346.4L396.3 344.4L396.1 344.4Q395.9 344.9 395.5 345.3Q395.2 345.7 394.5 346.0Q393.9 346.2 393.0 346.2L393.0 346.2Q391.8 346.2 390.8 345.6Q389.8 345.1 389.2 343.9Q388.6 342.7 388.6 340.9L388.6 340.9Q388.6 339.0 389.2 337.8Q389.8 336.6 390.8 335.9Q391.8 335.3 393.0 335.3L393.0 335.3Q393.9 335.3 394.6 335.6Q395.2 335.9 395.6 336.4Q395.9 336.9 396.1 337.3L396.1 337.3L396.3 337.3L396.3 335.5L399.3 335.5L399.3 346.5Q399.3 347.9 398.6 348.8Q397.9 349.7 396.7 350.2Q395.5 350.7 393.9 350.7ZM394.0 343.9L394.0 343.9Q394.7 343.9 395.2 343.6Q395.7 343.2 396.0 342.5Q396.3 341.8 396.3 340.9L396.3 340.9Q396.3 339.9 396.0 339.2Q395.7 338.5 395.2 338.1Q394.7 337.7 394.0 337.7L394.0 337.7Q393.2 337.7 392.7 338.1Q392.2 338.5 392.0 339.2Q391.7 340.0 391.7 340.9L391.7 340.9Q391.7 341.8 392.0 342.5Q392.2 343.2 392.7 343.6Q393.2 343.9 394.0 343.9ZM404.6 346.6L404.6 346.6Q403.0 346.6 401.7 345.9Q400.5 345.2 399.9 343.9Q399.2 342.6 399.2 341.0L399.2 341.0Q399.2 339.3 399.9 338.0Q400.5 336.7 401.7 336.0Q403.0 335.3 404.6 335.3L404.6 335.3Q406.3 335.3 407.5 336.0Q408.7 336.7 409.3 338.0Q410.0 339.3 410.0 341.0L410.0 341.0Q410.0 342.6 409.3 343.9Q408.7 345.2 407.5 345.9Q406.3 346.6 404.6 346.6ZM404.6 344.2L404.6 344.2Q405.4 344.2 405.9 343.8Q406.4 343.4 406.6 342.6Q406.9 341.9 406.9 340.9L406.9 340.9Q406.9 340.0 406.6 339.2Q406.4 338.5 405.9 338.1Q405.4 337.6 404.6 337.6L404.6 337.6Q403.9 337.6 403.3 338.1Q402.8 338.5 402.6 339.2Q402.3 340.0 402.3 340.9L402.3 340.9Q402.3 341.9 402.6 342.6Q402.8 343.4 403.3 343.8Q403.9 344.2 404.6 344.2ZM411.7 346.6L411.7 346.6Q411.0 346.6 410.5 346.1Q410.0 345.6 410.0 344.9L410.0 344.9Q410.0 344.2 410.5 343.7Q411.0 343.2 411.7 343.2L411.7 343.2Q412.4 343.2 412.9 343.7Q413.4 344.2 413.4 344.9L413.4 344.9Q413.4 345.3 413.2 345.7Q412.9 346.1 412.6 346.3Q412.2 346.6 411.7 346.6ZM418.8 346.6L418.8 346.6Q417.2 346.6 416.0 345.9Q414.7 345.2 414.1 343.9Q413.5 342.6 413.5 341.0L413.5 341.0Q413.5 339.3 414.1 338.0Q414.8 336.8 416.0 336.0Q417.2 335.3 418.8 335.3L418.8 335.3Q420.2 335.3 421.3 335.8Q422.4 336.4 423.0 337.3Q423.6 338.2 423.7 339.5L423.7 339.5L420.8 339.5Q420.7 338.7 420.2 338.2Q419.7 337.7 418.9 337.7L418.9 337.7Q418.2 337.7 417.6 338.1Q417.1 338.4 416.8 339.2Q416.5 339.9 416.5 340.9L416.5 340.9Q416.5 342.0 416.8 342.7Q417.1 343.4 417.6 343.8Q418.2 344.2 418.9 344.2L418.9 344.2Q419.4 344.2 419.8 344.0Q420.2 343.8 420.5 343.4Q420.8 343.0 420.8 342.4L420.8 342.4L423.7 342.4Q423.6 343.6 423.0 344.6Q422.4 345.5 421.4 346.1Q420.3 346.6 418.8 346.6ZM428.6 346.6L428.6 346.6Q426.9 346.6 425.7 345.9Q424.5 345.2 423.9 343.9Q423.2 342.6 423.2 341.0L423.2 341.0Q423.2 339.3 423.9 338.0Q424.5 336.7 425.7 336.0Q426.9 335.3 428.6 335.3L428.6 335.3Q430.2 335.3 431.4 336.0Q432.6 336.7 433.3 338.0Q433.9 339.3 433.9 341.0L433.9 341.0Q433.9 342.6 433.3 343.9Q432.6 345.2 431.4 345.9Q430.2 346.6 428.6 346.6ZM428.6 344.2L428.6 344.2Q429.3 344.2 429.9 343.8Q430.4 343.4 430.6 342.6Q430.9 341.9 430.9 340.9L430.9 340.9Q430.9 340.0 430.6 339.2Q430.4 338.5 429.9 338.1Q429.3 337.6 428.6 337.6L428.6 337.6Q427.8 337.6 427.3 338.1Q426.8 338.5 426.5 339.2Q426.3 340.0 426.3 340.9L426.3 340.9Q426.3 341.9 426.5 342.6Q426.8 343.4 427.3 343.8Q427.8 344.2 428.6 344.2ZM436.9 346.4L433.9 346.4L433.9 335.5L436.8 335.5L436.8 337.4L436.9 337.4Q437.3 336.4 438.1 335.9Q438.9 335.3 440.0 335.3L440.0 335.3Q441.1 335.3 441.9 335.9Q442.7 336.4 442.9 337.4L442.9 337.4L443.0 337.4Q443.4 336.5 444.3 335.9Q445.1 335.3 446.3 335.3L446.3 335.3Q447.9 335.3 448.8 336.3Q449.8 337.3 449.8 339.0L449.8 339.0L449.8 346.4L446.8 346.4L446.8 339.6Q446.8 338.7 446.3 338.3Q445.8 337.8 445.1 337.8L445.1 337.8Q444.2 337.8 443.8 338.3Q443.3 338.9 443.3 339.7L443.3 339.7L443.3 346.4L440.4 346.4L440.4 339.6Q440.4 338.8 439.9 338.3Q439.5 337.8 438.7 337.8L438.7 337.8Q438.2 337.8 437.8 338.1Q437.4 338.3 437.2 338.8Q436.9 339.2 436.9 339.8L436.9 339.8L436.9 346.4Z "/></svg>