<svg width="40" height="40" viewBox="0 0 40 40" fill="none" xmlns="http://www.w3.org/2000/svg">
<circle cx="20" cy="20" r="20" fill="#D9D9D9"/>
<circle cx="19.9998" cy="20" r="18.3333" fill="#EB9494" fill-opacity="0.29"/>
<path d="M16.3673 11.1803C17.5107 7.66125 22.4893 7.66125 23.6327 11.1803V11.1803C24.1441 12.7541 25.6106 13.8197 27.2654 13.8197V13.8197C30.9656 13.8197 32.5041 18.5546 29.5106 20.7295V20.7295C28.1718 21.7021 27.6116 23.4262 28.123 25V25C29.2664 28.5191 25.2387 31.4454 22.2451 29.2705V29.2705C20.9064 28.2979 19.0936 28.2979 17.7549 29.2705V29.2705C14.7613 31.4454 10.7336 28.5191 11.877 25V25C12.3884 23.4262 11.8282 21.7021 10.4894 20.7295V20.7295C7.49591 18.5546 9.03438 13.8197 12.7346 13.8197V13.8197C14.3894 13.8197 15.8559 12.7541 16.3673 11.1803V11.1803Z" fill="#F1A9A9"/>
<path d="M17.2681 22.8293C17.2681 21.2667 18.513 20 20.0486 20C21.5842 20 22.8291 21.2667 22.8291 22.8293" stroke="black" stroke-width="0.5"/>
</svg>
